<svg width="50" height="42" viewBox="0 0 50 42" fill="none" xmlns="http://www.w3.org/2000/svg">
<path d="M5.268 17.28C5.108 17.072 4.88 16.9 4.584 16.764C4.296 16.62 4.004 16.548 3.708 16.548C3.532 16.548 3.356 16.572 3.18 16.62C3.004 16.66 2.844 16.728 2.7 16.824C2.556 16.912 2.436 17.032 2.34 17.184C2.252 17.328 2.208 17.504 2.208 17.712C2.208 17.904 2.248 18.068 2.328 18.204C2.408 18.34 2.516 18.456 2.652 18.552C2.796 18.648 2.968 18.732 3.168 18.804C3.368 18.876 3.588 18.948 3.828 19.02C4.1 19.108 4.38 19.208 4.668 19.32C4.964 19.432 5.232 19.58 5.472 19.764C5.72 19.948 5.92 20.18 6.072 20.46C6.232 20.74 6.312 21.088 6.312 21.504C6.312 21.96 6.228 22.36 6.06 22.704C5.892 23.04 5.668 23.32 5.388 23.544C5.108 23.768 4.78 23.936 4.404 24.048C4.028 24.16 3.632 24.216 3.216 24.216C2.664 24.216 2.124 24.116 1.596 23.916C1.068 23.708 0.636 23.404 0.3 23.004L1.38 21.996C1.588 22.284 1.864 22.512 2.208 22.68C2.56 22.848 2.904 22.932 3.24 22.932C3.416 22.932 3.596 22.912 3.78 22.872C3.964 22.824 4.128 22.748 4.272 22.644C4.424 22.54 4.544 22.412 4.632 22.26C4.728 22.1 4.776 21.904 4.776 21.672C4.776 21.448 4.724 21.264 4.62 21.12C4.516 20.968 4.376 20.84 4.2 20.736C4.024 20.624 3.816 20.528 3.576 20.448C3.336 20.368 3.084 20.284 2.82 20.196C2.564 20.116 2.308 20.02 2.052 19.908C1.796 19.796 1.564 19.648 1.356 19.464C1.156 19.28 0.992 19.056 0.864 18.792C0.736 18.52 0.672 18.184 0.672 17.784C0.672 17.352 0.76 16.98 0.936 16.668C1.12 16.356 1.356 16.1 1.644 15.9C1.94 15.692 2.272 15.54 2.64 15.444C3.016 15.34 3.396 15.288 3.78 15.288C4.212 15.288 4.648 15.364 5.088 15.516C5.536 15.668 5.924 15.896 6.252 16.2L5.268 17.28ZM11.6906 19.836C11.5786 19.676 11.4106 19.544 11.1866 19.44C10.9626 19.328 10.7346 19.272 10.5026 19.272C10.2386 19.272 10.0066 19.328 9.80663 19.44C9.60663 19.544 9.43863 19.684 9.30263 19.86C9.17463 20.036 9.07863 20.236 9.01463 20.46C8.95063 20.676 8.91863 20.896 8.91863 21.12C8.91863 21.344 8.95063 21.568 9.01463 21.792C9.08663 22.008 9.19063 22.204 9.32663 22.38C9.46263 22.556 9.63063 22.7 9.83063 22.812C10.0386 22.916 10.2786 22.968 10.5506 22.968C10.7746 22.968 10.9986 22.924 11.2226 22.836C11.4466 22.748 11.6266 22.62 11.7626 22.452L12.6626 23.364C12.4226 23.62 12.1146 23.82 11.7386 23.964C11.3706 24.1 10.9706 24.168 10.5386 24.168C10.1146 24.168 9.71063 24.1 9.32663 23.964C8.95063 23.828 8.61863 23.628 8.33063 23.364C8.05063 23.1 7.82663 22.78 7.65863 22.404C7.49863 22.028 7.41863 21.6 7.41863 21.12C7.41863 20.656 7.49863 20.236 7.65863 19.86C7.82663 19.484 8.05063 19.164 8.33063 18.9C8.61063 18.636 8.93463 18.432 9.30263 18.288C9.67863 18.144 10.0786 18.072 10.5026 18.072C10.9266 18.072 11.3346 18.152 11.7266 18.312C12.1266 18.472 12.4426 18.692 12.6746 18.972L11.6906 19.836ZM13.614 18.24H14.994V19.2H15.018C15.178 18.864 15.402 18.592 15.69 18.384C15.978 18.176 16.314 18.072 16.698 18.072C16.754 18.072 16.814 18.076 16.878 18.084C16.942 18.084 16.998 18.092 17.046 18.108V19.428C16.95 19.404 16.866 19.388 16.794 19.38C16.73 19.372 16.666 19.368 16.602 19.368C16.274 19.368 16.01 19.428 15.81 19.548C15.61 19.668 15.454 19.812 15.342 19.98C15.23 20.148 15.154 20.32 15.114 20.496C15.074 20.672 15.054 20.812 15.054 20.916V24H13.614V18.24ZM17.4382 21.096C17.4382 20.64 17.5182 20.228 17.6782 19.86C17.8462 19.484 18.0702 19.164 18.3502 18.9C18.6302 18.636 18.9622 18.432 19.3462 18.288C19.7302 18.144 20.1382 18.072 20.5702 18.072C21.0022 18.072 21.4102 18.144 21.7942 18.288C22.1782 18.432 22.5102 18.636 22.7902 18.9C23.0702 19.164 23.2902 19.484 23.4502 19.86C23.6182 20.228 23.7022 20.64 23.7022 21.096C23.7022 21.552 23.6182 21.968 23.4502 22.344C23.2902 22.72 23.0702 23.044 22.7902 23.316C22.5102 23.58 22.1782 23.788 21.7942 23.94C21.4102 24.092 21.0022 24.168 20.5702 24.168C20.1382 24.168 19.7302 24.092 19.3462 23.94C18.9622 23.788 18.6302 23.58 18.3502 23.316C18.0702 23.044 17.8462 22.72 17.6782 22.344C17.5182 21.968 17.4382 21.552 17.4382 21.096ZM18.9022 21.096C18.9022 21.32 18.9342 21.544 18.9982 21.768C19.0702 21.992 19.1742 22.192 19.3102 22.368C19.4462 22.544 19.6182 22.688 19.8262 22.8C20.0342 22.912 20.2822 22.968 20.5702 22.968C20.8582 22.968 21.1062 22.912 21.3142 22.8C21.5222 22.688 21.6942 22.544 21.8302 22.368C21.9662 22.192 22.0662 21.992 22.1302 21.768C22.2022 21.544 22.2382 21.32 22.2382 21.096C22.2382 20.872 22.2022 20.652 22.1302 20.436C22.0662 20.212 21.9662 20.012 21.8302 19.836C21.6942 19.66 21.5222 19.52 21.3142 19.416C21.1062 19.304 20.8582 19.248 20.5702 19.248C20.2822 19.248 20.0342 19.304 19.8262 19.416C19.6182 19.52 19.4462 19.66 19.3102 19.836C19.1742 20.012 19.0702 20.212 18.9982 20.436C18.9342 20.652 18.9022 20.872 18.9022 21.096ZM25.1224 14.928H26.5624V24H25.1224V14.928ZM28.3333 14.928H29.7733V24H28.3333V14.928Z" fill="#DD0C1F"/>
<path d="M40.5 0V40.5L49 31" stroke="#DD0C1F"/>
</svg>
