<svg width="20" height="20" viewBox="0 0 20 20" fill="none" xmlns="http://www.w3.org/2000/svg">
<g clip-path="url(#clip0_245_2995)">
<path d="M9.78034 1.76212C12.3919 1.76212 12.7009 1.77221 13.7324 1.81918C14.6858 1.86266 15.2037 2.02183 15.5485 2.15577C16.005 2.33318 16.3307 2.54515 16.6731 2.88717C17.0155 3.22957 17.2275 3.55529 17.4045 4.01183C17.5385 4.35657 17.6976 4.87445 17.7411 5.82791C17.7881 6.85901 17.7982 7.16842 17.7982 9.77995C17.7982 12.3915 17.7881 12.7005 17.7411 13.732C17.6976 14.6855 17.5385 15.2033 17.4045 15.5481C17.2271 16.0046 17.0151 16.3303 16.6731 16.6727C16.3307 17.0151 16.005 17.2271 15.5485 17.4041C15.2037 17.5381 14.6858 17.6972 13.7324 17.7407C12.7013 17.7877 12.3919 17.7978 9.78034 17.7978C7.16881 17.7978 6.8594 17.7877 5.82829 17.7407C4.87484 17.6972 4.35695 17.5381 4.01222 17.4041C3.55568 17.2267 3.22996 17.0148 2.88755 16.6727C2.54515 16.3303 2.33318 16.0046 2.15615 15.5481C2.02222 15.2033 1.86305 14.6855 1.81957 13.732C1.7726 12.7009 1.7625 12.3915 1.7625 9.77995C1.7625 7.16842 1.7726 6.8594 1.81957 5.82791C1.86305 4.87445 2.02222 4.35657 2.15615 4.01183C2.33357 3.55529 2.54554 3.22957 2.88755 2.88717C3.22957 2.54476 3.55568 2.33279 4.01222 2.15577C4.35695 2.02183 4.87484 1.86266 5.82829 1.81918C6.8594 1.77221 7.16881 1.76212 9.78034 1.76212ZM9.78034 0C7.12416 0 6.79107 0.0112583 5.74793 0.0590089C4.70713 0.106371 3.99591 0.271752 3.37399 0.513611C2.73072 0.763622 2.18527 1.09788 1.64177 1.64177C1.09788 2.18566 0.763622 2.73072 0.513611 3.37399C0.271752 3.99591 0.106371 4.70713 0.0590089 5.74793C0.0112583 6.79107 0 7.12416 0 9.78034C0 12.4365 0.0112583 12.7696 0.0590089 13.8127C0.106371 14.8536 0.271752 15.5648 0.513611 16.1867C0.763622 16.83 1.09788 17.3754 1.64177 17.9189C2.18566 18.4628 2.73072 18.7971 3.37399 19.0471C3.99591 19.2889 4.70713 19.4543 5.74793 19.5017C6.79107 19.5494 7.12416 19.5607 9.78034 19.5607C12.4365 19.5607 12.7696 19.5494 13.8127 19.5017C14.8536 19.4543 15.5648 19.2889 16.1867 19.0471C16.83 18.7971 17.3754 18.4628 17.9189 17.9189C18.4628 17.375 18.7971 16.83 19.0471 16.1867C19.2889 15.5648 19.4543 14.8536 19.5017 13.8127C19.5494 12.7696 19.5607 12.4365 19.5607 9.78034C19.5607 7.12416 19.5494 6.79107 19.5017 5.74793C19.4543 4.70713 19.2889 3.99591 19.0471 3.37399C18.7971 2.73072 18.4628 2.18527 17.9189 1.64177C17.375 1.09788 16.83 0.763622 16.1867 0.513611C15.5648 0.271752 14.8536 0.106371 13.8127 0.0590089C12.7696 0.0112583 12.4365 0 9.78034 0Z" fill="white"/>
<path d="M9.77978 4.75781C7.00597 4.75781 4.75781 7.00636 4.75781 9.77978C4.75781 12.5532 7.00636 14.8017 9.77978 14.8017C12.5532 14.8017 14.8017 12.5532 14.8017 9.77978C14.8017 7.00636 12.5532 4.75781 9.77978 4.75781ZM9.77978 13.04C7.97923 13.04 6.51993 11.5803 6.51993 9.78017C6.51993 7.98001 7.97962 6.52032 9.77978 6.52032C11.5799 6.52032 13.0396 7.98001 13.0396 9.78017C13.0396 11.5803 11.5799 13.04 9.77978 13.04Z" fill="white"/>
<path d="M14.9997 5.73388C15.6479 5.73388 16.1733 5.20845 16.1733 4.5603C16.1733 3.91215 15.6479 3.38672 14.9997 3.38672C14.3516 3.38672 13.8262 3.91215 13.8262 4.5603C13.8262 5.20845 14.3516 5.73388 14.9997 5.73388Z" fill="white"/>
</g>
<defs>
<clipPath id="clip0_245_2995">
<rect width="19.5599" height="19.5599" fill="white"/>
</clipPath>
</defs>
</svg>
