<svg width="47" height="64" viewBox="0 0 47 64" fill="none" xmlns="http://www.w3.org/2000/svg">
<circle cx="23" cy="40.6755" r="23" fill="#CA1528"/>
<path d="M12.848 33.0595C12.836 33.1555 12.818 33.3055 12.794 33.5095C12.77 33.7015 12.746 33.8995 12.722 34.1035C12.71 34.2955 12.698 34.4695 12.686 34.6255C12.662 34.9735 12.638 35.3575 12.614 35.7775C12.602 36.1855 12.59 36.6115 12.578 37.0555C12.566 37.4875 12.554 37.9255 12.542 38.3695C12.542 38.8135 12.542 39.2455 12.542 39.6655C12.542 40.1575 12.548 40.7035 12.56 41.3035C12.572 41.8915 12.584 42.4795 12.596 43.0675C12.62 43.6435 12.632 44.1715 12.632 44.6515C12.644 45.1315 12.65 45.5035 12.65 45.7675C12.65 46.5115 12.566 47.0875 12.398 47.4955C12.242 47.9035 12.014 48.1855 11.714 48.3415C11.414 48.5095 11.066 48.5935 10.67 48.5935C10.238 48.5935 9.776 48.5035 9.284 48.3235C8.792 48.1555 8.33 47.9155 7.898 47.6035C7.478 47.2915 7.13 46.9315 6.854 46.5235C6.59 46.1035 6.458 45.6535 6.458 45.1735C6.458 44.5975 6.674 44.0275 7.106 43.4635C7.55 42.8875 8.132 42.3595 8.852 41.8795C9.584 41.3995 10.37 41.0155 11.21 40.7275C12.014 40.4275 12.842 40.2115 13.694 40.0795C14.546 39.9355 15.314 39.8635 15.998 39.8635C16.922 39.8635 17.756 40.0195 18.5 40.3315C19.244 40.6315 19.838 41.0755 20.282 41.6635C20.726 42.2515 20.948 42.9595 20.948 43.7875C20.948 44.4835 20.816 45.1255 20.552 45.7135C20.288 46.3015 19.862 46.8115 19.274 47.2435C18.698 47.6635 17.93 47.9935 16.97 48.2335C16.562 48.3175 16.154 48.3775 15.746 48.4135C15.35 48.4615 14.972 48.4975 14.612 48.5215L13.784 46.1995C14.192 46.1995 14.582 46.1935 14.954 46.1815C15.338 46.1575 15.686 46.1215 15.998 46.0735C16.49 45.9775 16.934 45.8335 17.33 45.6415C17.726 45.4495 18.038 45.1975 18.266 44.8855C18.494 44.5735 18.608 44.2015 18.608 43.7695C18.608 43.3615 18.494 43.0135 18.266 42.7255C18.05 42.4375 17.744 42.2155 17.348 42.0595C16.952 41.9035 16.49 41.8255 15.962 41.8255C15.206 41.8255 14.438 41.9035 13.658 42.0595C12.89 42.2155 12.152 42.4315 11.444 42.7075C10.916 42.9115 10.442 43.1515 10.022 43.4275C9.602 43.6915 9.272 43.9675 9.032 44.2555C8.792 44.5435 8.672 44.8195 8.672 45.0835C8.672 45.2275 8.714 45.3655 8.798 45.4975C8.894 45.6175 9.014 45.7255 9.158 45.8215C9.302 45.9175 9.446 45.9955 9.59 46.0555C9.746 46.1035 9.878 46.1275 9.986 46.1275C10.154 46.1275 10.292 46.0795 10.4 45.9835C10.508 45.8755 10.562 45.6715 10.562 45.3715C10.562 45.0475 10.55 44.5855 10.526 43.9855C10.514 43.3735 10.496 42.6955 10.472 41.9515C10.46 41.2075 10.454 40.4695 10.454 39.7375C10.454 39.2335 10.454 38.7235 10.454 38.2075C10.466 37.6915 10.472 37.1995 10.472 36.7315C10.472 36.2635 10.472 35.8495 10.472 35.4895C10.484 35.1295 10.49 34.8475 10.49 34.6435C10.49 34.5115 10.484 34.3435 10.472 34.1395C10.46 33.9355 10.442 33.7315 10.418 33.5275C10.406 33.3115 10.388 33.1555 10.364 33.0595H12.848ZM17.978 35.0035C18.434 35.2195 18.944 35.4835 19.508 35.7955C20.084 36.1075 20.63 36.4195 21.146 36.7315C21.674 37.0315 22.094 37.3015 22.406 37.5415L21.326 39.3775C21.098 39.1855 20.798 38.9695 20.426 38.7295C20.066 38.4895 19.67 38.2435 19.238 37.9915C18.818 37.7395 18.41 37.5055 18.014 37.2895C17.618 37.0615 17.276 36.8815 16.988 36.7495L17.978 35.0035ZM6.944 35.9935C7.472 36.0535 7.934 36.0955 8.33 36.1195C8.738 36.1315 9.104 36.1375 9.428 36.1375C9.896 36.1375 10.412 36.1195 10.976 36.0835C11.54 36.0355 12.116 35.9755 12.704 35.9035C13.292 35.8195 13.862 35.7235 14.414 35.6155C14.978 35.5075 15.488 35.3875 15.944 35.2555L15.998 37.4875C15.494 37.6075 14.948 37.7155 14.36 37.8115C13.772 37.8955 13.178 37.9735 12.578 38.0455C11.99 38.1175 11.426 38.1715 10.886 38.2075C10.358 38.2435 9.896 38.2615 9.5 38.2615C8.9 38.2615 8.408 38.2555 8.024 38.2435C7.64 38.2315 7.292 38.2075 6.98 38.1715L6.944 35.9935ZM32.36 36.7495V37.6495H37.076V36.7495H32.36ZM32.36 34.4275V35.3095H37.076V34.4275H32.36ZM30.29 32.8975H39.254V39.1795H30.29V32.8975ZM29.372 39.9715H39.83V41.7355H29.372V39.9715ZM28.922 42.7435H40.208V44.5795H28.922V42.7435ZM35.546 41.5195H37.724V47.1535C37.724 47.6455 37.664 48.0295 37.544 48.3055C37.436 48.5935 37.208 48.8095 36.86 48.9535C36.524 49.1095 36.122 49.1995 35.654 49.2235C35.198 49.2595 34.664 49.2775 34.052 49.2775C34.016 48.9895 33.932 48.6655 33.8 48.3055C33.668 47.9455 33.53 47.6275 33.386 47.3515C33.758 47.3635 34.124 47.3755 34.484 47.3875C34.856 47.3875 35.102 47.3875 35.222 47.3875C35.354 47.3755 35.438 47.3515 35.474 47.3155C35.522 47.2675 35.546 47.1955 35.546 47.0995V41.5195ZM30.11 45.4795L31.622 44.4715C32.006 44.8195 32.408 45.2155 32.828 45.6595C33.248 46.1035 33.572 46.4995 33.8 46.8475L32.198 47.9815C32.066 47.7535 31.88 47.4955 31.64 47.2075C31.412 46.9195 31.16 46.6255 30.884 46.3255C30.62 46.0135 30.362 45.7315 30.11 45.4795ZM27.644 36.3535L29.534 37.1455C29.102 37.8895 28.592 38.6335 28.004 39.3775C27.416 40.1215 26.798 40.8295 26.15 41.5015C25.502 42.1615 24.866 42.7375 24.242 43.2295C24.182 43.0615 24.092 42.8395 23.972 42.5635C23.864 42.2755 23.738 41.9875 23.594 41.6995C23.462 41.4115 23.336 41.1835 23.216 41.0155C23.756 40.6315 24.296 40.1935 24.836 39.7015C25.376 39.1975 25.892 38.6635 26.384 38.0995C26.876 37.5235 27.296 36.9415 27.644 36.3535ZM27.176 32.4115L29.228 33.2395C28.832 33.7915 28.37 34.3495 27.842 34.9135C27.326 35.4655 26.78 35.9875 26.204 36.4795C25.628 36.9715 25.052 37.4035 24.476 37.7755C24.404 37.6075 24.302 37.4095 24.17 37.1815C24.05 36.9535 23.918 36.7255 23.774 36.4975C23.642 36.2695 23.522 36.0835 23.414 35.9395C23.882 35.6515 24.356 35.3095 24.836 34.9135C25.316 34.5175 25.76 34.1035 26.168 33.6715C26.588 33.2275 26.924 32.8075 27.176 32.4115ZM25.862 40.3855L27.86 38.3875L27.968 38.4235V49.2775H25.862V40.3855Z" fill="white"/>
<line x1="4.46688" y1="8.36891" x2="9.39949" y2="15.7678" stroke="#F1B600" stroke-width="5" stroke-linecap="round"/>
<line x1="2.5" y1="-2.5" x2="11.3924" y2="-2.5" transform="matrix(-0.5547 0.83205 0.83205 0.5547 46.7061 6.67554)" stroke="#F1B600" stroke-width="5" stroke-linecap="round"/>
<line x1="16.028" y1="2.5007" x2="18.1931" y2="11.2364" stroke="#F1B600" stroke-width="5" stroke-linecap="round"/>
<line x1="2.5" y1="-2.5" x2="11.5" y2="-2.5" transform="matrix(-0.240569 0.970632 0.970632 0.240569 33.3682 0.675537)" stroke="#F1B600" stroke-width="5" stroke-linecap="round"/>
</svg>
