<svg width="20" height="20" viewBox="0 0 20 20" fill="none" xmlns="http://www.w3.org/2000/svg">
<rect width="20" height="20" rx="10" fill="white"/>
<path fill-rule="evenodd" clip-rule="evenodd" d="M16.3639 5.40738C16.5513 5.59491 16.6566 5.84921 16.6566 6.11438C16.6566 6.37954 16.5513 6.63385 16.3639 6.82138L8.86852 14.3167C8.76947 14.4158 8.65187 14.4944 8.52244 14.548C8.39301 14.6016 8.25428 14.6292 8.11419 14.6292C7.97409 14.6292 7.83537 14.6016 7.70594 14.548C7.57651 14.4944 7.45891 14.4158 7.35985 14.3167L3.63585 10.5934C3.54034 10.5011 3.46416 10.3908 3.41175 10.2688C3.35934 10.1468 3.33176 10.0156 3.3306 9.88278C3.32945 9.75 3.35475 9.61832 3.40503 9.49542C3.45531 9.37253 3.52957 9.26088 3.62346 9.16698C3.71735 9.07309 3.829 8.99884 3.9519 8.94856C4.0748 8.89828 4.20648 8.87297 4.33926 8.87413C4.47204 8.87528 4.60325 8.90287 4.72526 8.95528C4.84726 9.00769 4.95761 9.08387 5.04985 9.17938L8.11385 12.2434L14.9492 5.40738C15.0421 5.31445 15.1523 5.24073 15.2737 5.19044C15.3951 5.14014 15.5251 5.11426 15.6565 5.11426C15.7879 5.11426 15.918 5.14014 16.0394 5.19044C16.1607 5.24073 16.271 5.31445 16.3639 5.40738Z" fill="#DD0C1F"/>
</svg>
