<svg width="15" height="15" viewBox="0 0 15 15" fill="none" xmlns="http://www.w3.org/2000/svg">
<path d="M4.5 12C4.0875 12 3.7345 11.8533 3.441 11.5598C3.1475 11.2663 3.0005 10.913 3 10.5V1.5C3 1.0875 3.147 0.7345 3.441 0.441C3.735 0.1475 4.088 0.0005 4.5 0H13.5C13.9125 0 14.2658 0.147 14.5598 0.441C14.8538 0.735 15.0005 1.088 15 1.5V10.5C15 10.9125 14.8533 11.2658 14.5598 11.5598C14.2663 11.8538 13.913 12.0005 13.5 12H4.5ZM4.5 10.5H13.5V4.5H9C8.7875 4.5 8.6095 4.428 8.466 4.284C8.3225 4.14 8.2505 3.962 8.25 3.75V1.5H4.5V10.5ZM1.5 15C1.0875 15 0.7345 14.8533 0.441 14.5598C0.1475 14.2663 0.0005 13.913 0 13.5V3.75C0 3.5375 0.0720001 3.3595 0.216 3.216C0.36 3.0725 0.538 3.0005 0.75 3C0.962 2.9995 1.14025 3.0715 1.28475 3.216C1.42925 3.3605 1.501 3.5385 1.5 3.75V13.5H11.25C11.4625 13.5 11.6407 13.572 11.7847 13.716C11.9287 13.86 12.0005 14.038 12 14.25C11.9995 14.462 11.9275 14.6402 11.784 14.7847C11.6405 14.9292 11.4625 15.001 11.25 15H1.5Z" fill="white"/>
</svg>
