<svg width="18" height="18" viewBox="0 0 18 18" fill="none" xmlns="http://www.w3.org/2000/svg">
<path d="M6 13.5C5.5875 13.5 5.2345 13.3533 4.941 13.0597C4.6475 12.7662 4.5005 12.413 4.5 12V3C4.5 2.5875 4.647 2.2345 4.941 1.941C5.235 1.6475 5.588 1.5005 6 1.5H15C15.4125 1.5 15.7657 1.647 16.0597 1.941C16.3538 2.235 16.5005 2.588 16.5 3V12C16.5 12.4125 16.3533 12.7657 16.0597 13.0597C15.7662 13.3538 15.413 13.5005 15 13.5H6ZM6 12H15V6H10.5C10.2875 6 10.1095 5.928 9.966 5.784C9.8225 5.64 9.7505 5.462 9.75 5.25V3H6V12ZM3 16.5C2.5875 16.5 2.2345 16.3533 1.941 16.0597C1.6475 15.7662 1.5005 15.413 1.5 15V5.25C1.5 5.0375 1.572 4.8595 1.716 4.716C1.86 4.5725 2.038 4.5005 2.25 4.5C2.462 4.4995 2.64025 4.5715 2.78475 4.716C2.92925 4.8605 3.001 5.0385 3 5.25V15H12.75C12.9625 15 13.1407 15.072 13.2847 15.216C13.4287 15.36 13.5005 15.538 13.5 15.75C13.4995 15.962 13.4275 16.1402 13.284 16.2847C13.1405 16.4292 12.9625 16.501 12.75 16.5H3Z" fill="#DD0C1F"/>
</svg>
