<svg width="50" height="52" viewBox="0 0 50 52" fill="none" xmlns="http://www.w3.org/2000/svg">
<circle cx="25" cy="25.7937" r="25" fill="#F1B600"/>
<circle cx="24.9999" cy="25.7936" r="22.2222" stroke="white" stroke-width="0.793651"/>
<path d="M25.5288 13.9744C29.0111 13.9744 31.5471 14.7314 33.1369 16.2454C34.7519 17.7342 35.5593 19.7908 35.5593 22.4151C35.5593 24.0049 35.2313 25.4811 34.5752 26.8437C33.9191 28.2063 32.8215 29.304 31.2822 30.1368C29.7681 30.9695 27.6989 31.3858 25.0746 31.3858H22.6143V41H16.8988V13.9744H25.5288ZM25.226 18.6679H22.6143V26.6923H24.5068C26.1218 26.6923 27.3961 26.3769 28.3298 25.746C29.2887 25.0899 29.7681 24.0427 29.7681 22.6044C29.7681 19.9801 28.2541 18.6679 25.226 18.6679Z" fill="white"/>
</svg>
